<svg width="64" height="64" viewBox="0 0 64 64" fill="none" xmlns="http://www.w3.org/2000/svg">
<g clip-path="url(#clip0_154_979)">
<circle cx="32" cy="32" r="30" stroke="#EAFAF0" stroke-width="4"/>
<path d="M48.9375 52.5938C48.6875 52.5938 48.3125 52.4583 47.8125 52.1875C47.3333 51.9167 46.625 51.4479 45.6875 50.7812C44.7708 50.1354 43.7292 49.4167 42.5625 48.625L25.6562 37.2812L20.6562 43.875C20.6562 44.4375 20.5833 44.8646 20.4375 45.1562C20.2917 45.4271 19.9792 45.8125 19.5 46.3125C18.3542 47.5 17.375 48.4062 16.5625 49.0312C15.7708 49.6562 15.0521 49.9688 14.4062 49.9688C14.0938 49.9688 13.8229 49.8333 13.5938 49.5625C13.3646 49.3125 13.25 49 13.25 48.625C13.25 48.125 13.5417 47.4583 14.125 46.625L23.2812 35.25C22.7396 34.3958 22.4688 33.5208 22.4688 32.625C22.4688 31.7083 22.7188 30.9271 23.2188 30.2812C23.7396 29.6354 24.3333 29.1146 25 28.7188C25.6667 28.3229 27.5104 27.3229 30.5312 25.7188C34.8229 20.0312 36.9688 16.8438 36.9688 16.1562C36.9688 15.6979 36.6979 15.4688 36.1562 15.4688C35.5938 15.4688 34.3438 15.8021 32.4062 16.4688C30.4896 17.1354 27.9583 18.1667 24.8125 19.5625C21.6875 20.9375 17.9792 22.7083 13.6875 24.875C13.3333 25.0625 12.9271 25.1458 12.4688 25.125C12.0312 25.0833 11.6562 24.9062 11.3438 24.5938C11.0312 24.2604 10.875 23.8229 10.875 23.2812C10.875 23.1146 10.9167 22.9167 11 22.6875C11.0625 22.4583 11.1771 22.1042 11.3438 21.625C11.5104 21.125 11.6562 20.6875 11.7812 20.3125C11.8229 20.1875 11.9167 19.7396 12.0625 18.9688C12.2292 18.1979 12.5 17.5 12.875 16.875C13.25 16.2292 13.8854 15.5208 14.7812 14.75C15.6979 13.9792 17 13.1667 18.6875 12.3125C19 12.125 19.2917 12.0104 19.5625 11.9688C19.8333 11.9062 19.9688 11.9792 19.9688 12.1875C19.9688 12.25 19.6562 12.5104 19.0312 12.9688C18.4271 13.4062 17.7604 14.1354 17.0312 15.1562C23.1146 13.0312 27.5938 11.5417 30.4688 10.6875C33.3646 9.8125 35.6875 9.375 37.4375 9.375C38.3958 9.375 39.1979 10.0312 39.8438 11.3438C40.4896 12.6354 40.8125 13.4792 40.8125 13.875C40.8125 14.4583 40.5833 15.1146 40.125 15.8438L35.125 23.3438C39.0833 21.3854 42.1562 19.8333 44.3438 18.6875C46.5521 17.5208 48.9479 16.2604 51.5312 14.9062C54.1146 13.5312 55.75 12.6771 56.4375 12.3438C57.125 11.9896 57.5729 11.8125 57.7812 11.8125C58.2604 11.8125 58.5 12.0312 58.5 12.4688C58.5 12.7188 58.1354 13.4062 57.4062 14.5312C56.6979 15.6354 55.9062 16.6354 55.0312 17.5312C54.1562 18.4062 53.4271 18.8438 52.8438 18.8438C52.6979 18.8438 52.5208 18.8125 52.3125 18.75C52.1042 18.6667 51.9062 18.5938 51.7188 18.5312C48.9062 19.9896 45.4583 21.7188 41.375 23.7188C37.3125 25.7188 34.1042 27.2812 31.75 28.4062L29.0625 32.4375L44.9062 43.1875C46.3646 44.1667 47.4167 44.9479 48.0625 45.5312C48.7292 46.1146 49.2188 46.75 49.5312 47.4375C49.8646 48.125 50.0312 48.9896 50.0312 50.0312C50.0312 51.7396 49.6667 52.5938 48.9375 52.5938Z" fill="#EAFAF0"/>
</g>
<defs>
<clipPath id="clip0_154_979">
<rect width="64" height="64" fill="white"/>
</clipPath>
</defs>
</svg>
