<svg width="64" height="64" viewBox="0 0 64 64" fill="none" xmlns="http://www.w3.org/2000/svg">
<g clip-path="url(#clip0_40_88)">
<path fill-rule="evenodd" clip-rule="evenodd" d="M64 32C64 49.6731 49.6731 64 32 64C14.3269 64 0 49.6731 0 32C0 14.3269 14.3269 0 32 0C49.6731 0 64 14.3269 64 32ZM62 32C62 48.5685 48.5685 62 32 62C15.4315 62 2 48.5685 2 32C2 15.4315 15.4315 2 32 2C41.5074 2 49.9819 6.42262 55.4783 13.3228C55.4648 13.3297 55.4512 13.3367 55.4375 13.3438C54.75 13.6771 53.1146 14.5312 50.5312 15.9062C47.9479 17.2604 45.5521 18.5208 43.3438 19.6875C41.1562 20.8333 38.0833 22.3854 34.125 24.3438L39.125 16.8438C39.5833 16.1146 39.8125 15.4583 39.8125 14.875C39.8125 14.4792 39.4896 13.6354 38.8438 12.3438C38.1979 11.0312 37.3958 10.375 36.4375 10.375C34.6875 10.375 32.3646 10.8125 29.4688 11.6875C26.5938 12.5417 22.1146 14.0312 16.0312 16.1562C16.7604 15.1354 17.4271 14.4062 18.0312 13.9688C18.6562 13.5104 18.9688 13.25 18.9688 13.1875C18.9688 12.9792 18.8333 12.9062 18.5625 12.9688C18.2917 13.0104 18 13.125 17.6875 13.3125C16 14.1667 14.6979 14.9792 13.7812 15.75C12.8854 16.5208 12.25 17.2292 11.875 17.875C11.5 18.5 11.2292 19.1979 11.0625 19.9688C10.9167 20.7396 10.8229 21.1875 10.7812 21.3125L10.3438 22.625C10.1771 23.1042 10.0625 23.4583 10 23.6875C9.91667 23.9167 9.875 24.1146 9.875 24.2812C9.875 24.8229 10.0312 25.2604 10.3438 25.5938C10.6562 25.9062 11.0312 26.0833 11.4688 26.125C11.9271 26.1458 12.3333 26.0625 12.6875 25.875C16.9792 23.7083 20.6875 21.9375 23.8125 20.5625C26.9583 19.1667 29.4896 18.1354 31.4062 17.4688C33.3438 16.8021 34.5938 16.4688 35.1562 16.4688C35.6979 16.4688 35.9688 16.6979 35.9688 17.1562C35.9688 17.8438 33.8229 21.0312 29.5312 26.7188C26.5104 28.3229 24.6667 29.3229 24 29.7188C23.3333 30.1146 22.7396 30.6354 22.2188 31.2812C21.7188 31.9271 21.4688 32.7083 21.4688 33.625C21.4688 34.5208 21.7396 35.3958 22.2812 36.25L13.125 47.625C12.5417 48.4583 12.25 49.125 12.25 49.625C12.25 50 12.3646 50.3125 12.5938 50.5625C12.8229 50.8333 13.0938 50.9688 13.4062 50.9688C14.0521 50.9688 14.7708 50.6562 15.5625 50.0312C16.375 49.4062 17.3542 48.5 18.5 47.3125C18.9792 46.8125 19.2917 46.4271 19.4375 46.1562C19.5833 45.8646 19.6562 45.4375 19.6562 44.875L24.6562 38.2812L41.5625 49.625C42.7292 50.4167 43.7708 51.1354 44.6875 51.7812C45.625 52.4479 46.3333 52.9167 46.8125 53.1875C47.3125 53.4583 47.6875 53.5938 47.9375 53.5938C48.6667 53.5938 49.0312 52.7396 49.0312 51.0312C49.0312 49.9896 48.8646 49.125 48.5312 48.4375C48.2188 47.75 47.7292 47.1146 47.0625 46.5312C46.4167 45.9479 45.3646 45.1667 43.9062 44.1875L28.0625 33.4375L30.75 29.4062C33.1042 28.2812 36.3125 26.7188 40.375 24.7188C44.4583 22.7188 47.9062 20.9896 50.7188 19.5312C50.9062 19.5938 51.1042 19.6667 51.3125 19.75C51.5208 19.8125 51.6979 19.8438 51.8438 19.8438C52.4271 19.8438 53.1562 19.4062 54.0312 18.5312C54.9062 17.6354 55.6979 16.6354 56.4062 15.5312C56.5249 15.3481 56.6339 15.1766 56.7333 15.0167C60.0554 19.8456 62 25.6957 62 32Z" fill="white"/>
</g>
<defs>
<clipPath id="clip0_40_88">
<rect width="64" height="64" fill="white"/>
</clipPath>
</defs>
</svg>
