<svg width="64" height="64" viewBox="0 0 64 64" fill="none" xmlns="http://www.w3.org/2000/svg">
<path fill-rule="evenodd" clip-rule="evenodd" d="M57.1827 12.2536C61.4532 17.6922 64 24.5487 64 32C64 49.6731 49.6731 64 32 64C14.3269 64 0 49.6731 0 32C0 14.3269 14.3269 0 32 0C41.6387 0 50.2821 4.26151 56.1488 11.0032C56.4456 10.8761 56.6564 10.8125 56.7812 10.8125C57.2604 10.8125 57.5 11.0312 57.5 11.4688C57.5 11.6034 57.3942 11.865 57.1827 12.2536ZM60 32C60 47.464 47.464 60 32 60C16.536 60 4 47.464 4 32C4 16.536 16.536 4 32 4C40.0736 4 47.3491 7.41706 52.4592 12.8838C51.8892 13.1847 51.2466 13.5255 50.5312 13.9062C47.9479 15.2604 45.5521 16.5208 43.3438 17.6875C41.1562 18.8333 38.0833 20.3854 34.125 22.3438L39.125 14.8438C39.5833 14.1146 39.8125 13.4583 39.8125 12.875C39.8125 12.4792 39.4896 11.6354 38.8438 10.3438C38.1979 9.03125 37.3958 8.375 36.4375 8.375C34.6875 8.375 32.3646 8.8125 29.4688 9.6875C26.5938 10.5417 22.1146 12.0312 16.0312 14.1562C16.7604 13.1354 17.4271 12.4062 18.0312 11.9688C18.6562 11.5104 18.9688 11.25 18.9688 11.1875C18.9688 10.9792 18.8333 10.9062 18.5625 10.9688C18.2917 11.0104 18 11.125 17.6875 11.3125C16 12.1667 14.6979 12.9792 13.7812 13.75C12.8854 14.5208 12.25 15.2292 11.875 15.875C11.5 16.5 11.2292 17.1979 11.0625 17.9688C10.9167 18.7396 10.8229 19.1875 10.7812 19.3125L10.3438 20.625C10.1771 21.1042 10.0625 21.4583 10 21.6875C9.91667 21.9167 9.875 22.1146 9.875 22.2812C9.875 22.8229 10.0312 23.2604 10.3438 23.5938C10.6562 23.9062 11.0312 24.0833 11.4688 24.125C11.9271 24.1458 12.3333 24.0625 12.6875 23.875C16.9792 21.7083 20.6875 19.9375 23.8125 18.5625C26.9583 17.1667 29.4896 16.1354 31.4062 15.4688C33.3438 14.8021 34.5938 14.4688 35.1562 14.4688C35.6979 14.4688 35.9688 14.6979 35.9688 15.1562C35.9688 15.8438 33.8229 19.0312 29.5312 24.7188C26.5104 26.3229 24.6667 27.3229 24 27.7188C23.3333 28.1146 22.7396 28.6354 22.2188 29.2812C21.7188 29.9271 21.4688 30.7083 21.4688 31.625C21.4688 32.5208 21.7396 33.3958 22.2812 34.25L13.125 45.625C12.5417 46.4583 12.25 47.125 12.25 47.625C12.25 48 12.3646 48.3125 12.5938 48.5625C12.8229 48.8333 13.0938 48.9688 13.4062 48.9688C14.0521 48.9688 14.7708 48.6562 15.5625 48.0312C16.375 47.4062 17.3542 46.5 18.5 45.3125C18.9792 44.8125 19.2917 44.4271 19.4375 44.1562C19.5833 43.8646 19.6562 43.4375 19.6562 42.875L24.6562 36.2812L41.5625 47.625C42.7292 48.4167 43.7708 49.1354 44.6875 49.7812C45.625 50.4479 46.3333 50.9167 46.8125 51.1875C47.3125 51.4583 47.6875 51.5938 47.9375 51.5938C48.6667 51.5938 49.0312 50.7396 49.0312 49.0312C49.0312 47.9896 48.8646 47.125 48.5312 46.4375C48.2188 45.75 47.7292 45.1146 47.0625 44.5312C46.4167 43.9479 45.3646 43.1667 43.9062 42.1875L28.0625 31.4375L30.75 27.4062C33.1042 26.2812 36.3125 24.7188 40.375 22.7188C44.4583 20.7188 47.9062 18.9896 50.7188 17.5312C50.9062 17.5938 51.1042 17.6667 51.3125 17.75C51.5208 17.8125 51.6979 17.8438 51.8438 17.8438C52.4271 17.8438 53.1562 17.4062 54.0312 16.5312C54.2881 16.2683 54.5377 15.9964 54.7802 15.7155C58.066 20.3038 60 25.9261 60 32Z" fill="#29D265"/>
</svg>
