<svg width="64" height="64" viewBox="0 0 64 64" fill="none" xmlns="http://www.w3.org/2000/svg">
<g clip-path="url(#clip0_24_64)">
<path d="M64 32C64 49.6731 49.6731 64 32 64C14.3269 64 0 49.6731 0 32C0 14.3269 14.3269 0 32 0C49.6731 0 64 14.3269 64 32Z" fill="#29D265"/>
<path d="M49.0395 53.2264C48.7895 53.2264 48.4145 53.091 47.9145 52.8202C47.4354 52.5493 46.727 52.0806 45.7895 51.4139C44.8729 50.7681 43.8312 50.0493 42.6645 49.2577L25.7583 37.9139L20.7583 44.5077C20.7583 45.0702 20.6854 45.4972 20.5395 45.7889C20.3937 46.0597 20.0812 46.4452 19.602 46.9452C18.4562 48.1327 17.477 49.0389 16.6645 49.6639C15.8729 50.2889 15.1541 50.6014 14.5083 50.6014C14.1958 50.6014 13.925 50.466 13.6958 50.1952C13.4666 49.9452 13.352 49.6327 13.352 49.2577C13.352 48.7577 13.6437 48.091 14.227 47.2577L23.3833 35.8827C22.8416 35.0285 22.5708 34.1535 22.5708 33.2577C22.5708 32.341 22.8208 31.5597 23.3208 30.9139C23.8416 30.2681 24.4354 29.7472 25.102 29.3514C25.7687 28.9556 27.6125 27.9556 30.6333 26.3514C34.925 20.6639 37.0708 17.4764 37.0708 16.7889C37.0708 16.3306 36.8 16.1014 36.2583 16.1014C35.6958 16.1014 34.4458 16.4347 32.5083 17.1014C30.5916 17.7681 28.0604 18.7993 24.9145 20.1952C21.7895 21.5702 18.0812 23.341 13.7895 25.5077C13.4354 25.6952 13.0291 25.7785 12.5708 25.7577C12.1333 25.716 11.7583 25.5389 11.4458 25.2264C11.1333 24.8931 10.977 24.4556 10.977 23.9139C10.977 23.7472 11.0187 23.5493 11.102 23.3202C11.1645 23.091 11.2791 22.7368 11.4458 22.2577C11.6125 21.7577 11.7583 21.3202 11.8833 20.9452C11.925 20.8202 12.0187 20.3722 12.1645 19.6014C12.3312 18.8306 12.602 18.1327 12.977 17.5077C13.352 16.8618 13.9875 16.1535 14.8833 15.3827C15.8 14.6118 17.102 13.7993 18.7895 12.9452C19.102 12.7577 19.3937 12.6431 19.6645 12.6014C19.9354 12.5389 20.0708 12.6118 20.0708 12.8202C20.0708 12.8827 19.7583 13.1431 19.1333 13.6014C18.5291 14.0389 17.8625 14.7681 17.1333 15.7889C23.2166 13.6639 27.6958 12.1743 30.5708 11.3202C33.4666 10.4452 35.7895 10.0077 37.5395 10.0077C38.4979 10.0077 39.3 10.6639 39.9458 11.9764C40.5916 13.2681 40.9145 14.1118 40.9145 14.5077C40.9145 15.091 40.6854 15.7472 40.227 16.4764L35.227 23.9764C39.1854 22.0181 42.2583 20.466 44.4458 19.3202C46.6541 18.1535 49.05 16.8931 51.6333 15.5389C54.2166 14.1639 55.852 13.3097 56.5395 12.9764C57.227 12.6222 57.675 12.4452 57.8833 12.4452C58.3625 12.4452 58.602 12.6639 58.602 13.1014C58.602 13.3514 58.2375 14.0389 57.5083 15.1639C56.8 16.2681 56.0083 17.2681 55.1333 18.1639C54.2583 19.0389 53.5291 19.4764 52.9458 19.4764C52.8 19.4764 52.6229 19.4452 52.4145 19.3827C52.2062 19.2993 52.0083 19.2264 51.8208 19.1639C49.0083 20.6222 45.5604 22.3514 41.477 24.3514C37.4145 26.3514 34.2062 27.9139 31.852 29.0389L29.1645 33.0702L45.0083 43.8202C46.4666 44.7993 47.5187 45.5806 48.1645 46.1639C48.8312 46.7472 49.3208 47.3827 49.6333 48.0702C49.9666 48.7577 50.1333 49.6222 50.1333 50.6639C50.1333 52.3722 49.7687 53.2264 49.0395 53.2264Z" fill="white"/>
</g>
<defs>
<clipPath id="clip0_24_64">
<rect width="64" height="64" fill="white"/>
</clipPath>
</defs>
</svg>
